<?xml version="1.0" encoding="utf-8"?>
<!-- Generator: Adobe Illustrator 19.0.0, SVG Export Plug-In . SVG Version: 6.00 Build 0)  -->
<svg version="1.1" id="Layer_1" xmlns="http://www.w3.org/2000/svg" xmlns:xlink="http://www.w3.org/1999/xlink" x="0px" y="0px"
	 width="260px" height="371.3px" viewBox="0 0 260 371.3" style="enable-background:new 0 0 260 371.3;" xml:space="preserve">
<style type="text/css">
	.st0{fill:#818285;}
	.st1{opacity:0.4;}
	.st2{fill:#231F20;}
	.st3{fill:#F6871F;}
	.st4{fill:#F8991D;}
	.st5{fill:#795A7B;}
	.st6{fill:none;}
	.st7{fill:#F26867;}
	.st8{fill:#FFFFFF;}
	.st9{fill:#F47621;}
</style>
<g id="XMLID_92_">
	<g id="XMLID_276_">
		<g id="XMLID_281_">
			<path id="XMLID_90_" class="st0" d="M67.7,87.9C53,89.4,42.3,84.3,35.5,70.8C27.3,54.2,33,35.2,46,22.7
				c7.1-6.8,15.7-10.2,25.3-11.7c-12.1,6.2-27.1,30.5-15.4,42.7c2.9,3,7.1,4.6,11.2,5.1L67.7,87.9z"/>
		</g>
		<g id="XMLID_279_" class="st1">
			<path id="XMLID_89_" class="st0" d="M48,72.3c-5.9-6-8.5-14.4-7.9-22.8c1.2-17,11.5-28.7,24.8-37.1c-7,1.9-13.4,5.1-18.9,10.3
				c-13,12.4-18.7,31.5-10.5,48C42.3,84.3,53,89.4,67.7,87.9l-0.1-6.5C60.2,80,53,77.4,48,72.3z"/>
		</g>
		<g id="XMLID_277_">
			<path id="XMLID_88_" class="st2" d="M72.4,54.9c0.7-5.1-7.3-5.8-8-0.7c-1.5,11.8,1,23.6,0.4,35.5c-0.2,5.1,7.7,5.9,8,0.7
				C73.4,78.6,70.9,66.8,72.4,54.9z"/>
		</g>
	</g>
	<g id="XMLID_269_">
		<g id="XMLID_274_">
			<path id="XMLID_87_" class="st0" d="M185.7,87.9c14.7,1.4,25.5-3.6,32.2-17.2c8.2-16.6,2.5-35.6-10.5-48
				c-7.1-6.8-15.7-10.2-25.3-11.7c12.1,6.2,27.1,30.5,15.4,42.7c-2.9,3-7.1,4.6-11.2,5.1L185.7,87.9z"/>
		</g>
		<g id="XMLID_272_" class="st1">
			<path id="XMLID_86_" class="st0" d="M205.5,72.3c5.9-6,8.5-14.4,7.9-22.8c-1.2-17-11.5-28.7-24.8-37.1c7,1.9,13.4,5.1,18.9,10.3
				c13,12.4,18.7,31.5,10.5,48c-6.7,13.6-17.5,18.6-32.2,17.2l0.1-6.5C193.2,80,200.4,77.4,205.5,72.3z"/>
		</g>
		<g id="XMLID_270_">
			<path id="XMLID_85_" class="st2" d="M181,54.9c-0.7-5.1,7.3-5.8,8-0.7c1.5,11.8-1,23.6-0.4,35.5c0.2,5.1-7.7,5.9-8,0.7
				C180,78.6,182.5,66.8,181,54.9z"/>
		</g>
	</g>
	<g id="XMLID_267_">
		<path id="XMLID_84_" class="st3" d="M191.3,201.3c-2-4.3-5.9-7.2-10-9.3c-0.3-0.2-0.6-0.3-0.9-0.5c-0.6-0.3-1.1,0.6-0.5,0.9
			c3,1.3,4.5,4,4.3,7.2c-0.3,4-3.7,6.4-7.5,6.6c-4,0.2-8.3-1.7-10.4-5.1c-1.6-2.6-1.8-6-2.2-9c-1.2-8.7-8.4-24.1-19.6-19.4
			c0,0,0,0,0,0c-0.3,0.1-0.4,0.5-0.2,0.7c0,0.1,0.1,0.2,0.2,0.2c1.8,1.8,3.5,3.7,5.3,5.5c4,4.2,5,10.3,5.2,15.9
			c0.2,9.2,3.7,18.3,11.8,23.5c7.6,4.9,18.5,3.3,23.6-4.3C192.8,210.5,193.2,205.2,191.3,201.3z"/>
	</g>
	<g id="XMLID_265_">
		<path id="XMLID_83_" class="st3" d="M122.7,170.4h-3.4c-0.1,0-0.3,0-0.4,0.1c0,0,0,0,0,0c0,0,0,0,0,0
			c-7.2,8.6-11.1,18.6-12.7,29.6c-1.6,11.1-1.9,22.9-1,34c1,12.4,3.6,25,1.1,37.5c-1.2,6-3.9,11.6-9.4,14.7
			c-2.7,1.5-7.2,1.8-9.2-1.1c-1.8-2.6,1.8-5.4,3.8-6.4c0.6-0.3,0.1-1-0.4-0.9c-3.6,0.5-6.8,2.2-7.9,5.9c-0.9,3.2,0.4,6.6,2.4,9
			c5.9,7.6,18.1,5,24.4-0.5c9.5-8.2,9.5-23.8,8.7-35.3c-1-15.2-5.2-29.9-6.1-45.1c-0.8-14.5,1-29.3,10.5-40.8
			C123.3,171,123.2,170.4,122.7,170.4z"/>
	</g>
	<g id="XMLID_263_">
		<path id="XMLID_82_" class="st4" d="M104.3,184.1c-0.2-6.8-1.3-13.3-2.4-20c0-0.2-5.1-0.4-5.3-0.4c-1.7-0.1-3.5-0.2-5.2-0.2
			c-0.3,0-0.4,0.2-0.5,0.4c0,0.1,0,0.2,0,0.3c1.8,8.1,2.5,16.3,2.7,24.6c0.2,7.6,0,15.2-1.4,22.7c-2.4,13.3-8.8,25.7-21.3,31.8
			c-10.8,5.3-25.2,3-31-8.4c-2.6-5.1-3-11.2-2.6-16.8c0.4-5,1.5-11.3,5.2-15.1c3.4-3.5,9.1-3.3,12.6-0.1c4.8,4.3,2.2,11.3-1.1,15.7
			c-0.3,0.4,0.2,0.8,0.6,0.7c7.8-1.7,19.1-5.4,17.3-15.6c-1.9-10.3-11-17.4-21-18.7c-9.9-1.3-19.5,4.2-25.8,11.4
			c-6.3,7.1-9.6,16.5-10.6,25.9c-2.2,19.8,8.1,41.8,28,48.1c22.1,7,48.2-10.8,55.7-30.5c4.1-10.9,5-22.7,5.8-34.2
			C104.3,198.5,104.5,191.3,104.3,184.1z"/>
	</g>
	<g id="XMLID_261_">
		<path id="XMLID_81_" class="st4" d="M157.8,291.9c-5.3-12.4-15.5-21.9-21.8-33.8c-6.4-12.2-8.7-26-6.6-39.6
			c3-19.4,15.9-34.8,28.4-49.1c0.4-0.4,0-0.9-0.5-0.8c-5.4,0.8-10.8,1.6-16.3,2.5c-0.1,0-0.1,0-0.2,0c-0.1,0-0.2,0.1-0.2,0.1
			c-9.8,3.8-15.8,14.5-19.4,23.8c-5,13.2-4.9,27.5-1.8,41.1c3.2,14.2,10.5,26.9,16.7,39.9c4.8,10.1,8.9,20.5,9.1,31.8
			c0.1,6.5-1.3,13.2-5.8,18.1c-3.9,4.3-11.9,8.1-17.6,5.2c-4-2-5-7.2-4.1-11.2c1.1-5,5.5-7.6,10.4-6.4c0.5,0.1,0.8-0.5,0.5-0.8
			c-3.8-4.1-8.2-7.8-13.7-9.1c-5.4-1.3-11,0.8-15.4,3.9c-8.6,5.9-13.9,17.2-12.3,27.6c1.6,10.6,9.9,18.2,19.6,22
			c10.2,3.9,21.8,3.4,31.5-1.4c10.7-5.2,17.8-15.3,21.5-26.3C163.8,317,162.9,303.8,157.8,291.9z"/>
	</g>
	<g id="XMLID_259_">
		<path id="XMLID_80_" class="st4" d="M203.4,239c-4.4-6.9-13.9-8.8-21.2-5.6c-3.6,1.6-7.1,4.2-7.7,8.3c-0.7,4.1,2.2,8.2,4.3,11.4
			c0.3,0.5,1,0.2,0.9-0.4c-0.4-2.5-0.7-5-0.1-7.4c0.8-3.8,4.9-5.5,8.4-3.9c5.6,2.7,5.6,11.1,2.2,15.4c-5.9,7.5-18.9,5.4-26,1.1
			c-11.2-6.9-9.7-21.3-6.8-32.2c1.9-7.4,5.2-14.4,8.3-21.4c2.7-6,5.6-12.1,6.7-18.7c1.2-7.7-2.1-14-8.3-18.4c-0.2-0.1-0.3-0.1-0.4,0
			c-2.3,0.6-4.6,1.2-6.9,1.7c-0.5,0.1-0.4,0.8,0,1c2.2,0.9,3.5,4.8,4,6.9c0.7,2.8,0.7,5.9,0.4,8.8c-0.5,5.5-2.2,10.9-4.1,16
			c-4.6,12.5-10.1,24.5-12.1,37.7c-1.5,10.2-0.5,21.1,8.3,27.7c7.9,6,18.3,7.3,27.9,5.9c8.1-1.1,16.3-4.7,21.3-11.4
			C207.1,255.1,207.7,245.9,203.4,239z"/>
	</g>
	<g id="XMLID_257_">
		<path id="XMLID_79_" class="st4" d="M180.8,40.3c-8.7-11.7-98.5-11.7-107.2,0C65,52,71,148.2,91.6,172.5
			c10.7,12.6,60.6,12.6,71.2,0C183.5,148.2,189.5,52,180.8,40.3z"/>
	</g>
	<g id="XMLID_255_" class="st1">
		<path id="XMLID_78_" class="st4" d="M180.8,40.3c-1.1-1.5-3.7-2.9-7.3-4c-0.1,1-0.1,2-0.2,3c-0.6,8.4-1,16.9-2.1,25.2
			c-2.6,19.2-9.3,36.9-20.5,52.7c-10.4,14.6-23.4,26.4-39.4,34.5c-7.9,4-16.9,8-26.1,10c1.9,4.3,4.1,7.9,6.4,10.6
			c10.7,12.6,60.6,12.6,71.2,0C183.5,148.2,189.5,52,180.8,40.3z"/>
	</g>
	<g id="XMLID_253_">
		<path id="XMLID_77_" class="st5" d="M160.5,137.6c0,14.3-11.6,26-26,26h-11.3c-14.3,0-26-11.6-26-26V93.6c0-14.3,11.6-26,26-26
			h11.3c14.3,0,26,11.6,26,26V137.6z"/>
	</g>
	<g id="XMLID_251_" class="st1">
		<path id="XMLID_76_" class="st5" d="M123.2,163.5c-8.8,0-16-7.2-16-16v-43.9c0-8.8,7.2-16,16-16h11.3c8.8,0,16,7.2,16,16v43.9
			c0,8.8-7.2,16-16,16H123.2z"/>
	</g>
	<g id="XMLID_249_" class="st1">
		<path id="XMLID_75_" class="st5" d="M123.2,163.5c-3.3,0-6-2.7-6-6v-43.9c0-3.3,2.7-6,6-6h11.3c3.3,0,6,2.7,6,6v43.9
			c0,3.3-2.7,6-6,6H123.2z"/>
	</g>
	<g id="XMLID_244_">
		<g id="XMLID_247_">
			<path id="XMLID_74_" class="st6" d="M127.6,137.3c12.2,0,22.3,4.7,29.3,13.5c2.3-3.9,3.6-8.4,3.6-13.3V93.6c0-14.3-11.6-26-26-26
				h-11.3c-14.3,0-26,11.6-26,26v43.9c0,4.8,1.3,9.3,3.6,13.1C107.1,142.5,117.3,137.4,127.6,137.3z"/>
		</g>
		<g id="XMLID_245_">
			<path id="XMLID_73_" class="st7" d="M127.6,137.3c-10.3,0-20.5,5.2-26.8,13.4c4.5,7.7,12.8,12.8,22.4,12.8h11.3
				c9.5,0,17.8-5.1,22.3-12.7C149.9,142,139.8,137.3,127.6,137.3z"/>
		</g>
	</g>
	<g id="XMLID_231_">
		<g id="XMLID_242_">
			<path id="XMLID_72_" class="st8" d="M111.7,88.1c3,0,5.5-2.5,5.5-5.5v-14c0-0.1,0-0.2,0-0.3c-4.1,1-7.9,3-11,5.7v8.6
				C106.2,85.7,108.7,88.1,111.7,88.1z"/>
		</g>
		<g id="XMLID_240_">
			<path id="XMLID_71_" class="st8" d="M140.6,82.6c0,3,2.5,5.5,5.5,5.5c3,0,5.5-2.5,5.5-5.5V74c-3.1-2.7-6.8-4.7-11-5.7
				c0,0.1,0,0.2,0,0.3V82.6z"/>
		</g>
		<g id="XMLID_238_">
			<path id="XMLID_70_" class="st8" d="M123.2,82.6c3,0,5.5-2.5,5.5-5.5v-9.4h-5.4c-1.9,0-3.8,0.2-5.6,0.6v8.8
				C117.7,80.1,120.1,82.6,123.2,82.6z"/>
		</g>
		<g id="XMLID_236_">
			<path id="XMLID_69_" class="st8" d="M134.6,82.6c3,0,5.5-2.5,5.5-5.5v-8.8c-1.8-0.4-3.7-0.6-5.6-0.6h-5.4v9.4
				C129.2,80.1,131.6,82.6,134.6,82.6z"/>
		</g>
		<g id="XMLID_234_">
			<path id="XMLID_68_" class="st8" d="M123.2,146.7c-3,0-5.5,2.5-5.5,5.5v10.8c1.8,0.4,3.7,0.6,5.6,0.6h5.4v-11.4
				C128.7,149.1,126.2,146.7,123.2,146.7z"/>
		</g>
		<g id="XMLID_232_">
			<path id="XMLID_67_" class="st8" d="M134.6,146.7c-3,0-5.5,2.5-5.5,5.5v11.4h5.4c1.9,0,3.8-0.2,5.6-0.6v-10.8
				C140.1,149.1,137.7,146.7,134.6,146.7z"/>
		</g>
	</g>
	<g id="XMLID_218_">
		<g id="XMLID_221_">
			<g id="XMLID_229_">
				<path id="XMLID_66_" class="st8" d="M175.3,63.1c0,0,4.5-34.1-30.3-19.3C145,43.8,134.2,82,175.3,63.1z"/>
			</g>
			<g id="XMLID_226_">
				<g id="XMLID_227_">
					
						<ellipse id="XMLID_65_" transform="matrix(-0.7195 -0.6945 0.6945 -0.7195 230.3426 205.7496)" class="st5" cx="156.7" cy="56.4" rx="11.2" ry="10.8"/>
				</g>
			</g>
			<g id="XMLID_224_">
				<path id="XMLID_64_" class="st4" d="M174.9,63.3c-4.5-6-7.6-12.7-15-16.2c-4.4-2.1-9.3-2.9-14.2-3.6
					c34-14.1,29.6,19.6,29.6,19.6C175.2,63.2,175,63.3,174.9,63.3z"/>
			</g>
			<g id="XMLID_222_" class="st1">
				<path id="XMLID_63_" class="st4" d="M174.9,63.3c-4.5-6-7.6-12.7-15-16.2c-4.4-2.1-9.3-2.9-14.2-3.6
					c34-14.1,29.6,19.6,29.6,19.6C175.2,63.2,175,63.3,174.9,63.3z"/>
			</g>
		</g>
		<g id="XMLID_219_">
			<ellipse id="XMLID_62_" class="st2" cx="152.2" cy="54" rx="3.7" ry="5.6"/>
		</g>
	</g>
	<g id="XMLID_205_">
		<g id="XMLID_208_">
			<g id="XMLID_216_">
				<path id="XMLID_61_" class="st8" d="M75.7,64.5c0,0-4.5-34.1,30.3-19.3C106,45.2,116.8,83.3,75.7,64.5z"/>
			</g>
			<g id="XMLID_213_">
				<g id="XMLID_214_">
					
						<ellipse id="XMLID_60_" transform="matrix(0.7195 -0.6945 0.6945 0.7195 -13.6175 81.6666)" class="st5" cx="94.3" cy="57.7" rx="11.2" ry="10.8"/>
				</g>
			</g>
			<g id="XMLID_211_">
				<path id="XMLID_59_" class="st4" d="M76.1,64.7c4.5-6,7.6-12.7,15-16.2c4.4-2.1,9.3-2.9,14.2-3.6c-34-14.1-29.6,19.6-29.6,19.6
					C75.8,64.5,76,64.6,76.1,64.7z"/>
			</g>
			<g id="XMLID_209_" class="st1">
				<path id="XMLID_58_" class="st4" d="M76.1,64.7c4.5-6,7.6-12.7,15-16.2c4.4-2.1,9.3-2.9,14.2-3.6c-34-14.1-29.6,19.6-29.6,19.6
					C75.8,64.5,76,64.6,76.1,64.7z"/>
			</g>
		</g>
		<g id="XMLID_206_">
			<path id="XMLID_57_" class="st2" d="M102.5,55.4c0,3.1-1.6,5.6-3.7,5.6c-2,0-3.7-2.5-3.7-5.6c0-3.1,1.6-5.6,3.7-5.6
				C100.8,49.8,102.5,52.3,102.5,55.4z"/>
		</g>
	</g>
	<g id="XMLID_203_">
		<path id="XMLID_56_" class="st9" d="M95.6,186.9c0,0,0-0.1-0.1-0.1c0,0,0,0,0-0.1c0,0,0,0,0,0c0,0-0.1-0.1-0.1-0.1
			c-4.7-3.2-4.8,9.4-4,11.6c0.5,1.3,1.9,2.1,3.2,2c1.3-0.1,1.9-1.8,2.1-2.9C97.6,193.5,96.8,190.3,95.6,186.9z"/>
	</g>
	<g id="XMLID_201_" class="st1">
		<path id="XMLID_55_" class="st9" d="M94.3,199.1c-0.8,0-1.7-0.6-2-1.4c-0.5-1.2-0.6-8,0.9-10.2c0.3-0.5,0.6-0.5,0.7-0.5
			c0.1,0,0.4,0.1,0.7,0.3c1.2,3.5,1.8,6.4,1.1,9.7c-0.3,1.3-0.8,2.1-1.3,2.1C94.5,199.1,94.4,199.1,94.3,199.1z"/>
	</g>
	<g id="XMLID_199_">
		<path id="XMLID_54_" class="st9" d="M94.3,207.8c-3.9-4.2-7,9.5-7,12.3c0,1.2,0.8,2.3,2.1,2.5c1.7,0.1,2.6-0.9,3.3-2.3
			c1-2.1,1.5-4.9,2-7.2C95,211.4,95.4,208.9,94.3,207.8z"/>
	</g>
	<g id="XMLID_197_" class="st1">
		<path id="XMLID_53_" class="st9" d="M89.7,221.5c-0.1,0-0.1,0-0.2,0c-0.7-0.1-1.2-0.8-1.2-1.5c0-2.8,2.6-12,4.6-12
			c0.2,0,0.5,0.2,0.7,0.5c0.5,0.6,0.6,2.3,0.1,4.3l-0.3,1.1c-0.4,1.9-0.9,4.1-1.7,5.8C91,221.3,90.3,221.5,89.7,221.5L89.7,221.5z"
			/>
	</g>
	<g id="XMLID_195_">
		<path id="XMLID_52_" class="st9" d="M86.3,229.5c-0.9-0.8-1.9-0.4-3-0.1c0,0,0,0-0.1,0c0,0,0,0-0.1,0c-2.6,1.5-6,3.5-6.2,6.9
			c-0.1,2.9,2.2,3.5,4.3,2.2c1.9-1.2,4.1-3.5,5-5.7C86.7,232,87.2,230.3,86.3,229.5z"/>
	</g>
	<g id="XMLID_193_" class="st1">
		<path id="XMLID_51_" class="st9" d="M79.3,238.2c-0.4,0-0.7-0.1-0.9-0.3c-0.3-0.3-0.4-0.8-0.4-1.5c0.1-2.8,3.2-4.6,5.6-6l0.1,0
			l0.3-0.1c0.4-0.1,0.8-0.2,1.1-0.2c0.2,0,0.4,0.1,0.5,0.2c0.2,0.2,0.2,1.2-0.2,2.3c-0.8,2-2.9,4.1-4.6,5.2
			C80.3,238,79.8,238.2,79.3,238.2L79.3,238.2z"/>
	</g>
	<g id="XMLID_191_">
		<path id="XMLID_50_" class="st9" d="M72.5,242.3c-0.9-0.8-2.1-0.7-3.2-0.8c-0.1,0-0.2,0-0.2,0c-2.4,0.4-6.1,0.3-7.8,2.4
			c-1.7,2.3,0.5,4.7,2.8,5c2.4,0.3,6.9-1.2,8.3-3.3C72.9,244.8,73.5,243.1,72.5,242.3z"/>
	</g>
	<g id="XMLID_189_" class="st1">
		<path id="XMLID_49_" class="st9" d="M64.8,248c-0.2,0-0.4,0-0.6,0c-1.1-0.1-2.1-0.9-2.5-1.7c-0.2-0.6-0.1-1.1,0.3-1.7
			c1.1-1.4,3.5-1.6,5.6-1.9c0.5-0.1,1.1-0.1,1.5-0.2l0.1,0c0.2,0,0.4,0,0.5,0c0.9,0.1,1.5,0.1,2,0.6c0.4,0.3,0.1,1.3-0.3,2
			C70.5,246.7,67,248,64.8,248L64.8,248z"/>
	</g>
	<g id="XMLID_187_">
		<path id="XMLID_48_" class="st9" d="M56.2,201.4c-1.7-2.8-12.3-4-11,0c0.7,2.4,4.8,2.3,7,2.5C53.5,204,57.8,203.8,56.2,201.4z"/>
	</g>
	<g id="XMLID_185_" class="st1">
		<path id="XMLID_47_" class="st9" d="M52.9,202.9c-0.2,0-0.4,0-0.6,0c-0.3,0-0.6,0-0.9-0.1c-1.9-0.1-4.8-0.3-5.3-1.8
			c-0.1-0.4,0-0.5,0-0.6c0.2-0.3,1.1-0.7,2.8-0.7c3,0,5.8,1.1,6.4,2.1c0.2,0.3,0.2,0.5,0.2,0.5C55.5,202.5,54.6,202.9,52.9,202.9
			L52.9,202.9z"/>
	</g>
	<g id="XMLID_183_">
		<path id="XMLID_46_" class="st9" d="M43.6,239.1c-3.1,0.8-0.4,4.7,0.8,5.8c2.1,1.9,6.2,4.1,9,2.5
			C56.8,245.4,45.7,238.5,43.6,239.1z"/>
	</g>
	<g id="XMLID_181_" class="st1">
		<path id="XMLID_45_" class="st9" d="M51.2,246.9c-2,0-4.5-1.4-6.1-2.8c-0.9-0.8-2.1-2.7-1.9-3.6c0-0.1,0.1-0.3,0.7-0.5
			c1.4,0,6.8,3,8.7,5.4c0.5,0.7,0.5,1,0.5,1l0,0c0,0,0,0-0.1,0.1C52.4,246.8,51.9,246.9,51.2,246.9L51.2,246.9z"/>
	</g>
	<g id="XMLID_179_">
		<path id="XMLID_44_" class="st9" d="M42.1,203.4c-0.5-1-1.7-0.7-2.4-0.3c-2,1.2-2.5,4-3.1,6c0,0,0,0.1,0,0.1c0,0,0,0,0,0
			c-0.2,1.8-1.8,6,0.3,7.2c2.3,1.3,3.8-2.8,4.3-4.2C42,209.8,43.3,205.9,42.1,203.4z"/>
	</g>
	<g id="XMLID_177_" class="st1">
		<path id="XMLID_43_" class="st9" d="M37.7,215.7c-0.1,0-0.2,0-0.4-0.1c-1-0.6-0.4-3.1,0-4.7c0.1-0.6,0.2-1.1,0.3-1.5l0,0l0-0.1
			c0.1-0.2,0.1-0.5,0.2-0.8c0.5-1.7,1-3.7,2.4-4.5c0.3-0.2,0.6-0.3,0.8-0.3c0.1,0,0.2,0,0.2,0.1c1.1,2.3-0.3,6.1-1,8
			C39,215.2,38.1,215.7,37.7,215.7L37.7,215.7z"/>
	</g>
	<g id="XMLID_175_">
		<path id="XMLID_42_" class="st9" d="M40.3,226.6c-0.3-1-1.8-6.2-3.8-4.7c-1.5,1.1-1,4.8-0.8,6.5c0,0.1,0,0.1,0,0.2
			c0.7,1.7,1.4,5.8,3.7,5.8c1.1,0,1.7-1.6,1.8-2.4C41.4,230.2,40.8,228.2,40.3,226.6z"/>
	</g>
	<g id="XMLID_173_" class="st1">
		<path id="XMLID_41_" class="st9" d="M39.4,233.4c-1.1,0-1.9-2.5-2.3-3.9c-0.1-0.4-0.3-0.8-0.4-1.2l-0.1-0.6
			c-0.1-1.3-0.4-4.4,0.5-5.1c0.1-0.1,0.1-0.1,0.1-0.1c0.3,0,1.2,1.2,2.1,4.2l0.1,0.2c0.4,1.6,1,3.3,0.8,4.8
			C40.1,232.7,39.7,233.4,39.4,233.4L39.4,233.4z"/>
	</g>
	<g id="XMLID_171_">
		<path id="XMLID_40_" class="st9" d="M127.5,184.8c0-0.1-0.1-0.1-0.2-0.2c0,0-0.1,0-0.1,0c0,0,0,0,0,0c-2.5-0.6-4.2,1.6-5.3,3.5
			c-1.1,1.9-2.2,4.9-0.8,6.9c1.6,2.2,4.5-0.6,5.2-2.2c0.7-1.5,1.2-3.3,1.8-4.9C128.5,186.8,128.3,185.6,127.5,184.8z"/>
	</g>
	<g id="XMLID_169_" class="st1">
		<path id="XMLID_39_" class="st9" d="M122.6,194.8c-0.2,0-0.4,0-0.6-0.4c-1.3-1.8,0.2-4.7,0.8-5.8c1.2-2,2.3-3,3.4-3.1v0.1h0.6
			c0.4,0.5,0.5,1.3,0.3,2c-0.1,0.4-0.3,0.8-0.4,1.2c-0.4,1.2-0.8,2.5-1.4,3.6C124.9,193.3,123.5,194.8,122.6,194.8L122.6,194.8z"/>
	</g>
	<g id="XMLID_167_">
		<path id="XMLID_38_" class="st9" d="M120.4,200.4c-0.7-0.4-1.4-0.3-1.9,0.1c-1.3,0.7-1.8,3.4-2,4.7c-0.3,1.8-1.9,7.5,1.6,7.5
			c3.1,0,3.1-6.4,3.4-8.2C121.6,203.1,121.8,201.2,120.4,200.4z"/>
	</g>
	<g id="XMLID_165_" class="st1">
		<path id="XMLID_37_" class="st9" d="M118,211.6c-0.5,0-0.7-0.2-0.8-0.3c-0.8-1-0.2-4,0.1-5.3c0.1-0.3,0.1-0.6,0.2-0.8
			c0.4-2.3,0.9-3.6,1.5-3.9l0.1,0l0.1,0c0.1-0.1,0.2-0.1,0.4-0.1c0.1,0,0.3,0,0.4,0.1c0.8,0.5,0.7,1.8,0.5,3.1
			c0,0.2-0.1,0.6-0.1,0.9C120.2,207,119.8,211.6,118,211.6z"/>
	</g>
	<g id="XMLID_163_">
		<path id="XMLID_36_" class="st9" d="M121.1,223c-0.2-1.9-0.5-4.9-2.1-6.2c-1.6-1.3-3,0.8-3.3,2.2c-0.4,2.1-0.3,4.4,0.3,6.6
			c0.3,2.6,1.3,5.7,3.6,4.1C121.6,228.2,121.3,225,121.1,223z"/>
	</g>
	<g id="XMLID_161_" class="st1">
		<path id="XMLID_35_" class="st9" d="M118.4,229c-0.4,0-1.1-1-1.4-3.7l0-0.1l0-0.1c-0.5-2.2-0.6-4.3-0.3-6.1
			c0.2-0.8,0.8-1.8,1.2-1.8c0.1,0,0.3,0.1,0.4,0.2c1.2,1,1.5,3.5,1.7,5.2l0,0.4c0.2,1.5,0.5,4.6-1,5.7
			C118.7,229,118.5,229,118.4,229L118.4,229z"/>
	</g>
	<g id="XMLID_159_">
		<path id="XMLID_34_" class="st9" d="M125.3,244.1c-0.5-3.3-2.2-6.5-4.1-9.1c0,0,0,0,0,0c-0.1-0.1-0.1-0.2-0.3-0.2
			c-2.1-0.6-2.6,2.2-2.7,3.7c-0.2,2.5,1.7,7,3.9,8.3C124.1,248,125.7,246.2,125.3,244.1z"/>
	</g>
	<g id="XMLID_157_" class="st1">
		<path id="XMLID_33_" class="st9" d="M123.4,246.2c-0.2,0-0.5-0.1-0.8-0.3c-1.9-1.2-3.6-5.3-3.4-7.4c0.3-2.7,0.9-2.9,1.1-2.9
			c0,0,0.1,0,0.2,0l0,0c2.1,2.8,3.5,5.8,3.9,8.6c0.1,0.7,0,1.3-0.4,1.7C123.8,246.1,123.6,246.2,123.4,246.2L123.4,246.2z"/>
	</g>
	<g id="XMLID_155_">
		<path id="XMLID_32_" class="st9" d="M129.1,255.6c-0.5-0.9-1.5-2.7-2.6-2.8c0,0,0,0,0,0c-4-1.6-1.6,6.6-0.7,8.1
			c0.6,1,1.5,1.7,2.6,1.9c1.2,0.1,2.1-1.2,2.1-2.2C130.7,258.7,129.9,257.1,129.1,255.6z"/>
	</g>
	<g id="XMLID_153_" class="st1">
		<path id="XMLID_31_" class="st9" d="M128.6,261.7c-0.7-0.1-1.4-0.6-1.9-1.4c-0.6-1-1.9-5.4-1.2-6.6c0-0.1,0.1-0.1,0.1-0.1
			c0.1,0,0.2,0,0.5,0.1l0.2,0.1l0.1,0c0.2,0,0.8,0.3,1.9,2.3c0.8,1.5,1.5,2.9,1.4,4.3C129.6,260.9,129,261.7,128.6,261.7
			L128.6,261.7z"/>
	</g>
	<g id="XMLID_151_">
		<path id="XMLID_30_" class="st9" d="M137.1,274c-0.3-1.3-1-2.6-1.5-3.8c-0.2-0.5-0.5-0.9-0.7-1.3c-0.8-1.8-2.6-3.7-4-1.5
			c-0.6,1,0.1,2.6,0.5,3.6c0.6,1.4,1.1,3,1.9,4.3C134.5,277.1,137.6,276.6,137.1,274z"/>
	</g>
	<g id="XMLID_149_" class="st1">
		<path id="XMLID_29_" class="st9" d="M135.3,275.4c-0.5,0-1-0.3-1.3-0.7c-0.6-0.8-0.9-1.8-1.3-2.8c-0.2-0.4-0.3-0.9-0.5-1.3
			c-0.3-0.6-0.9-2.1-0.5-2.6c0.2-0.3,0.4-0.5,0.6-0.5c0.3,0,1.1,0.7,1.7,1.9l0,0.1l0.1,0.1c0.2,0.3,0.4,0.7,0.6,1.1
			c0.1,0.3,0.3,0.7,0.5,1c0.4,0.9,0.8,1.7,1,2.6c0.1,0.3,0.1,0.7-0.1,0.9C135.8,275.3,135.6,275.4,135.3,275.4L135.3,275.4z"/>
	</g>
	<g id="XMLID_147_">
		<path id="XMLID_28_" class="st9" d="M141.4,283.1c-0.9-1.4-3.3-3-3.9-0.5c-0.6,2.3,2.3,8,2.5,8.5c0.3,0.8,1.1,2,2.1,1.9
			c0.3,0,0.6-0.2,0.8-0.4c0.4-0.1,0.8-0.5,1-1.2C144.6,288.8,142.8,285.1,141.4,283.1z"/>
	</g>
	<g id="XMLID_145_" class="st1">
		<path id="XMLID_27_" class="st9" d="M141.9,291.9c-0.2,0-0.7-0.5-1-1.2c0-0.1-0.1-0.2-0.2-0.4c-2.3-5-2.4-6.8-2.3-7.5
			c0.1-0.2,0.2-0.6,0.3-0.6c0.4,0,1.3,0.6,1.8,1.3c1.9,3,2.8,5.8,2.3,7.5c-0.1,0.4-0.2,0.5-0.3,0.5l-0.2,0.1l-0.2,0.2
			C142.1,291.9,142.1,291.9,141.9,291.9L141.9,291.9z"/>
	</g>
	<g id="XMLID_143_">
		<path id="XMLID_26_" class="st9" d="M146.7,299.9c-0.3-1.3-1-2.9-2.6-2.4c-0.2,0.1-0.4,0.2-0.5,0.3c-0.3,0.1-0.6,0.4-0.9,1
			c-0.4,0.8-0.2,1.8-0.1,2.6c0.2,1.7,0.3,3.3,0.3,4.9c0,1.9-1.1,5.3,1.6,6C149.7,313.8,147.2,302,146.7,299.9z"/>
	</g>
	<g id="XMLID_141_" class="st1">
		<path id="XMLID_25_" class="st9" d="M145.3,311.5c-0.2,0-0.3,0-0.5-0.1c-1.1-0.3-1.2-1.3-1-3.6c0.1-0.5,0.1-1,0.1-1.4
			c0-1.5-0.1-3.2-0.3-5.1l0-0.3c-0.1-0.6-0.2-1.4,0-1.8c0.2-0.5,0.4-0.6,0.4-0.6l0.2-0.1l0.1-0.1c0.1-0.1,0.1-0.1,0.1-0.1
			c0.1,0,0.2,0,0.3,0c0.4,0,0.7,0.6,1.1,1.7c0.8,3,1.7,9.3,0.3,11C145.9,311.4,145.6,311.5,145.3,311.5L145.3,311.5z"/>
	</g>
	<g id="XMLID_139_">
		<path id="XMLID_24_" class="st9" d="M145.4,319.2c-0.2-1.2-0.7-2.2-2-2c-0.7,0.1-1.1,0.7-1.3,1.5c-0.1,0.1-0.1,0.3-0.2,0.4
			c-0.5,1-0.7,2-1.3,2.9c-0.6,1-1.6,1.8-2.2,2.9c-0.5,1-0.2,2.6,1.2,2.6C142.8,327.5,145.8,322,145.4,319.2z"/>
	</g>
	<g id="XMLID_137_" class="st1">
		<path id="XMLID_23_" class="st9" d="M139.6,326.5c-0.2,0-0.3-0.1-0.3-0.2c-0.1-0.3-0.1-0.7,0-1c0.3-0.5,0.6-0.9,1-1.4
			c0.4-0.4,0.8-0.9,1.1-1.5c0.4-0.6,0.6-1.2,0.8-1.8c0.2-0.4,0.3-0.8,0.5-1.2c0-0.1,0.1-0.2,0.2-0.3l0.1-0.1l0-0.1
			c0.1-0.5,0.3-0.7,0.5-0.8c0.1,0,0.1,0,0.2,0c0.1,0,0.6,0,0.8,1.2c0.2,1.4-0.8,3.9-2.2,5.6C141.4,325.9,140.4,326.5,139.6,326.5
			L139.6,326.5z"/>
	</g>
	<g id="XMLID_135_">
		<path id="XMLID_22_" class="st9" d="M134.3,330.4c-0.5-0.9-1.3-1.2-2.1-1.3c0,0,0,0,0,0c0,0,0,0,0,0c-0.3,0-0.7,0-1.1,0
			c-1,0.1-2,0.3-3,0.7c-1,0.1-2.5,0.6-2.8,1.6c-0.2,0.3-0.4,0.6-0.4,0.9c0,0.6,0.3,1,0.7,1.3c0.2,0.4,0.6,0.5,1.1,0.6
			c1,0.3,2.2,0.4,2.9,0.3C131.1,334.5,135.6,332.7,134.3,330.4z"/>
	</g>
	<g id="XMLID_133_" class="st1">
		<path id="XMLID_21_" class="st9" d="M129,333.7c-0.7,0-1.5-0.1-2-0.3l-0.1,0l-0.1,0c-0.2,0-0.2,0-0.2,0l-0.1-0.2l-0.1-0.1
			c-0.3-0.2-0.3-0.4-0.3-0.5c0-0.1,0.1-0.2,0.2-0.3l0.1-0.2l0.1-0.2c0.1-0.3,1-0.8,1.9-0.9l0.1,0l0.1,0c0.9-0.3,1.8-0.5,2.7-0.6
			c0.3,0,0.5-0.1,0.7-0.1c0.1,0,0.2,0,0.2,0c0.7,0.1,1.1,0.3,1.3,0.8c0.1,0.2,0.1,0.4,0,0.6c-0.5,1-3,2-4,2.1
			C129.3,333.7,129.1,333.7,129,333.7z"/>
	</g>
	<g id="XMLID_131_">
		<path id="XMLID_20_" class="st9" d="M119.7,323c-0.2-1.2,0.5-3.4-0.3-4.4c-0.6-0.8-1.8-1.1-2.5-0.2c-0.9,1.1-1.2,2.5-1,4
			c-0.1,2.4,0.3,6,2.5,6.6C121.2,329.9,119.9,324.2,119.7,323z"/>
	</g>
	<g id="XMLID_129_" class="st1">
		<path id="XMLID_19_" class="st9" d="M118.8,328.1c0,0-0.1,0-0.2,0c-1.3-0.4-1.9-3.1-1.7-5.6l0-0.1l0-0.1c-0.1-1.4,0.1-2.5,0.8-3.3
			c0.1-0.2,0.3-0.2,0.4-0.2c0.2,0,0.4,0.1,0.6,0.3c0.3,0.3,0.2,1.4,0.1,2.1c0,0.6-0.1,1.3,0,1.8c0,0.1,0,0.3,0.1,0.4
			C119.5,327.6,118.9,328.1,118.8,328.1L118.8,328.1z"/>
	</g>
	<g id="XMLID_127_">
		<path id="XMLID_18_" class="st9" d="M173.3,176.6c-0.1-1.4-0.8-4-2.3-4.7c-0.3-0.1-0.6-0.2-0.8-0.2c-0.4-0.1-0.8,0-1.3,0.4
			c-1.3,1,0.5,3.3,0.8,4.3c0.5,1.4,0.1,4.2,1.3,5.3c0.6,0.6,1.8,0.7,2.2-0.3C173.8,180,173.4,178,173.3,176.6z"/>
	</g>
	<g id="XMLID_125_" class="st1">
		<path id="XMLID_17_" class="st9" d="M172.2,181.2c-0.1,0-0.3-0.1-0.4-0.2c-0.5-0.5-0.6-1.7-0.7-2.8c-0.1-0.8-0.1-1.5-0.3-2.1
			c-0.1-0.3-0.3-0.7-0.5-1.1c-0.2-0.5-1-1.9-0.7-2.2c0.2-0.2,0.4-0.2,0.4-0.2l0.1,0c0,0,0.2,0,0.2,0c0.1,0,0.2,0,0.3,0.1
			c0.9,0.4,1.5,2.3,1.7,3.9c0,0.3,0.1,0.5,0.1,0.8c0.1,1.2,0.3,2.6,0,3.6C172.3,181.1,172.3,181.2,172.2,181.2z"/>
	</g>
	<g id="XMLID_123_">
		<path id="XMLID_16_" class="st9" d="M172.9,188.6c-0.6-1.3-2-0.9-2.8,0.1c-1.1,1.4-1.2,3.3-1.7,4.9c-0.2,0.6-0.4,1.6,0.1,2.2
			c0.4,0.5,1.2,0.8,1.8,0.4c1.3-0.9,1.8-2.5,2.2-3.9C173,191.2,173.4,189.6,172.9,188.6z"/>
	</g>
	<g id="XMLID_121_" class="st1">
		<path id="XMLID_15_" class="st9" d="M169.7,195.3c-0.1,0-0.3-0.1-0.4-0.3c0,0-0.2-0.2,0.1-1.3c0.1-0.5,0.3-1,0.4-1.4
			c0.3-1.2,0.5-2.3,1.2-3.1c0.2-0.3,0.6-0.5,0.8-0.5c0.1,0,0.1,0,0.3,0.2c0.3,0.7,0,1.9-0.4,2.8l0,0.1l0,0.1
			C171.2,193.3,170.7,194.7,169.7,195.3L169.7,195.3z"/>
	</g>
	<g id="XMLID_119_">
		<path id="XMLID_14_" class="st9" d="M167.6,203c-0.6-1.1-1.6-1.4-2.6-0.8c-1.4,0.7-1.9,2.7-2.2,4.6c-0.3,0.9-0.5,2.1-0.1,2.9
			c1.3,2.5,4-2.3,4.4-3.2C167.5,205.4,168.1,204,167.6,203z"/>
	</g>
	<g id="XMLID_117_" class="st1">
		<path id="XMLID_13_" class="st9" d="M163.7,209.3c0,0-0.1-0.1-0.1-0.2c-0.2-0.4-0.1-1.1,0.2-2.2l0-0.1l0-0.1
			c0.2-2.1,0.8-3.4,1.6-3.8c0.2-0.1,0.4-0.2,0.6-0.2c0.1,0,0.4,0,0.7,0.5c0.3,0.7-0.2,1.8-0.5,2.6
			C165.7,207.1,164.3,209.1,163.7,209.3z"/>
	</g>
	<g id="XMLID_115_">
		<path id="XMLID_12_" class="st9" d="M158.7,218.5c-0.3,0.2-0.5,0.5-0.7,0.8c-1.3,1.4-1.8,4-1.8,5.8c-0.1,1.6,1.2,3.2,2.8,1.9
			c1.8-1.4,2.6-4.3,2.6-6.5C161.5,219,160.2,217.2,158.7,218.5z"/>
	</g>
	<g id="XMLID_113_" class="st1">
		<path id="XMLID_11_" class="st9" d="M157.7,226.5c0,0-0.1,0-0.3-0.1c-0.2-0.3-0.4-0.7-0.4-1.2c0.1-1.6,0.5-4,1.6-5.2l0,0l0,0
			c0.2-0.3,0.4-0.5,0.6-0.7c0.1-0.1,0.3-0.2,0.4-0.2c0.1,0,0.2,0.1,0.3,0.2c0.3,0.3,0.5,0.8,0.5,1.3c0,1.9-0.7,4.5-2.3,5.7
			C158,226.4,157.9,226.5,157.7,226.5L157.7,226.5z"/>
	</g>
	<g id="XMLID_111_">
		<path id="XMLID_10_" class="st9" d="M156.8,234.1C156.7,234.1,156.7,234.1,156.8,234.1c-0.7-0.7-1.6-0.7-2.3,0.5
			c-1,1.6-1.2,4-1.1,6.1c0,0.6,0,1.1,0,1.7c0.1,1,0.7,1.7,1.4,1.7c0.5,0.2,1,0.1,1.5-0.6c1.3-1.7,1.2-4.9,1.3-7
			C157.6,235.7,157.7,234.4,156.8,234.1z"/>
	</g>
	<g id="XMLID_109_" class="st1">
		<path id="XMLID_9_" class="st9" d="M155,243l-0.2,0c-0.1,0-0.3-0.2-0.4-0.8c0-0.5-0.1-1,0-1.6c-0.2-2.4,0.2-4.4,0.9-5.5
			c0.3-0.4,0.5-0.5,0.5-0.5c0,0,0.1,0,0.2,0.1l0.2,0.2l0.3,0.1c0.1,0.1,0.1,0.4,0.1,1.3c0,0.3,0,0.7-0.1,1.1
			c-0.1,1.9-0.2,4.2-1.1,5.4c-0.1,0.2-0.2,0.3-0.3,0.3L155,243z"/>
	</g>
	<g id="XMLID_107_">
		<path id="XMLID_8_" class="st9" d="M162.3,252.8c-0.8-1.2-4-5.5-5.2-2.6c-0.2,0.6-0.3,1.2-0.2,1.9c0,2.6,2.3,5.2,4.8,5.8
			c0.9,0.2,1.6-0.2,1.9-1.1C163.9,255.4,163,253.9,162.3,252.8z"/>
	</g>
	<g id="XMLID_105_" class="st1">
		<path id="XMLID_7_" class="st9" d="M162.1,256.9c-0.1,0-0.1,0-0.2,0c-1.9-0.5-4-2.6-4-4.8l0-0.1l0-0.1c-0.1-0.5,0-1,0.1-1.4
			c0.1-0.3,0.2-0.4,0.2-0.4l0,0c0.6,0,2.1,1.4,3.2,3.1c0.5,0.7,1.4,2.2,1.1,3.2C162.4,256.9,162.2,256.9,162.1,256.9
			C162.1,256.9,162.1,256.9,162.1,256.9z"/>
	</g>
	<g id="XMLID_103_">
		<path id="XMLID_6_" class="st9" d="M174.5,259c-1.5-0.7-3.6-1.5-5.2-0.8c-0.1,0-0.2,0-0.3,0.1c-1.3,0.3-1.7,1.9-0.9,2.8
			c1,1.1,3,1.4,4.4,1.6c1.2,0.2,4,1.2,4.7-0.5C177.8,260.5,175.7,259.5,174.5,259z"/>
	</g>
	<g id="XMLID_101_" class="st1">
		<path id="XMLID_5_" class="st9" d="M175.3,262.1c-0.6,0-1.3-0.2-1.9-0.3c-0.3-0.1-0.6-0.1-0.8-0.2c-1.3-0.2-3-0.5-3.8-1.3
			c-0.2-0.2-0.2-0.5-0.2-0.7c0-0.1,0.2-0.4,0.5-0.5c0.1,0,0.1,0,0.2,0l0.1,0l0.2-0.1c0.3-0.1,0.6-0.2,1-0.2c0.9,0,2,0.3,3.4,1
			l0.1,0.1c1.4,0.7,2.3,1.3,2,1.8C176.2,261.8,176.1,262.1,175.3,262.1L175.3,262.1z"/>
	</g>
	<g id="XMLID_99_">
		<path id="XMLID_4_" class="st9" d="M189.1,255.8c-0.1,0-0.2,0-0.3,0.1c-0.1,0-0.3,0-0.4,0.1c-0.5,0.1-0.9,0.3-1.4,0.5
			c-0.5,0.2-1,0.5-1.4,0.8c-1.1,0.5-2.1,1.3-2.7,2.2c-1.1,1.7,1.5,2.3,2.7,2.2c1.9-0.1,4.5-1.2,5.3-3.1
			C191.4,257.1,190.9,255.5,189.1,255.8z"/>
	</g>
	<g id="XMLID_97_" class="st1">
		<path id="XMLID_3_" class="st9" d="M185.3,260.7c-0.8,0-1.6-0.3-1.7-0.5c0,0,0-0.1,0.1-0.2c0.4-0.7,1.3-1.4,2.2-1.8l0.1-0.1
			l0.1-0.1c0.3-0.3,0.7-0.5,1.1-0.6l0.1,0c0.4-0.2,0.8-0.4,1.2-0.5l0.1,0l0,0c0.1,0,0.1,0,0.1,0l0.1,0l0.1,0c0.1,0,0.2,0,0.3-0.1
			c0.1,0,0.1,0,0.2,0c0.3,0,0.4,0.1,0.5,0.2c0.2,0.2,0.2,0.7,0,1.3c-0.5,1.4-2.7,2.4-4.4,2.5C185.5,260.7,185.4,260.7,185.3,260.7z"
			/>
	</g>
	<g id="XMLID_95_">
		<path id="XMLID_2_" class="st9" d="M193.2,243.4c-0.5-1.5-1.7-3-3.4-2.9c-0.5,0-0.9,0.2-1.1,0.5c-0.6,0.3-0.7,1.2-0.4,1.9
			c0.1,0.3,0.2,0.5,0.3,0.7c0.2,0.3,1.9,4.2,2.3,5.1c0.7,1.4,2.5,1.2,3.1-0.1C194.5,247.1,193.7,244.8,193.2,243.4z"/>
	</g>
	<g id="XMLID_93_" class="st1">
		<path id="XMLID_1_" class="st9" d="M192.2,243.7c-0.3-0.8-1-2.3-2.3-2.3l-0.1,0c-0.3,0-0.4,0.1-0.5,0.2l-0.1,0.1l-0.1,0.1
			c0,0-0.1,0.3,0.1,0.7l0,0.1c0.1,0.2,0.1,0.4,0.2,0.5c0.1,0.2,0.4,0.8,1.1,2.3c0.5,1.1,1.1,2.4,1.3,2.8c0.2,0.4,0.5,0.4,0.6,0.4
			c0.1,0,0.5,0,0.6-0.5C193.4,247,192.7,244.9,192.2,243.7z"/>
	</g>
</g>
</svg>
