<svg id="Layer_1" data-name="Layer 1" xmlns="http://www.w3.org/2000/svg" width="50" height="50" viewBox="0 0 50 50"><defs><style>.cls-1{fill:#44aee3;}.cls-2{fill:#475caa;}.cls-3{fill:#fff;}.cls-4{fill:#ee3787;}.cls-5{fill:#f99d31;}</style></defs><title>logo</title><path class="cls-1" d="M46.16,34.44a9.89,9.89,0,0,1-5.79,4.79,12.21,12.21,0,0,1-7.23,0c-6.63-1.95-9.15-8.46-9.25-8.73-.34-.9-2.58-7,1-12,1.7-2.35,5.4-5.49,9.24-4.48,2.12.56,4.66,2.36,4.66,4.56,0,2-2,3.38-2.45,3.69-2.83,2-5.24.53-6.47,2.05-1.43,1.77.12,5.89,2.47,8.25.41.42,3.44,3.44,7,2.77,4.41-.83,6.28-6.2,7.34-5.68C47.42,30,47.07,32.57,46.16,34.44Z"/><path class="cls-2" d="M9,9.66a11.61,11.61,0,0,1,8.83.63,14.52,14.52,0,0,1,6.14,5.89c4.06,7.06.9,14.64.76,15-.45,1-3.49,8-10.61,9.34-3.37.61-9.07.28-11.51-3.71a7.57,7.57,0,0,1-.26-7.67,7.34,7.34,0,0,1,6.14-3.33c3.22,0,4.12,2.42,6.52,1.92s3.83-3.09,4.22-5.24a8.3,8.3,0,0,0-3.71-8.06c-4.43-2.89-10.39.15-10.87-1.15C4.31,12.38,6.67,10.51,9,9.66Z"/><path class="cls-3" d="M7.82,29.86c1.56-.46,2.23,1,5,1.41,3.21.51,4.91-1,5.63-.13s-.48,3.64-2.31,5.12a7.22,7.22,0,0,1-5.37,1.4c-.51-.06-5-.65-5.5-3.58A4.08,4.08,0,0,1,7.82,29.86Z"/><circle class="cls-4" cx="2.64" cy="16.18" r="1.25"/><circle class="cls-5" cx="48.12" cy="27.29" r="1.25"/></svg>