<svg id="Layer_1" data-name="Layer 1" xmlns="http://www.w3.org/2000/svg" width="196" height="196" viewBox="0 0 196 196"><defs><style>.cls-1{fill:#fff;}</style></defs><title>logo</title><g id="Page-1"><g id="I-dont-like-work"><path id="Combined-Shape" class="cls-1" d="M0,0H196V196H0ZM35.08,29.89H24.79l-.44,3.65A5.18,5.18,0,0,0,26.77,35v20.1a5.72,5.72,0,0,0-2.42,1.45l.44,3.65H35.08l.44-3.65a6.6,6.6,0,0,0-2.41-1.45V35a5.8,5.8,0,0,0,2.41-1.49ZM59.41,29,59,32.39A6.43,6.43,0,0,0,62,34v4.35a16.12,16.12,0,0,0-3.7-.44,10.59,10.59,0,0,0-7,2.38Q48,43,48,49.59,48,55.44,50.1,58c1.43,1.72,3.72,2.58,6.89,2.58A9.12,9.12,0,0,0,60,60a8.46,8.46,0,0,0,2.51-1.35,2.16,2.16,0,0,0,.46,1.1,2.44,2.44,0,0,0,.86.8,14.07,14.07,0,0,0,6.68-1.41V55.7A8.76,8.76,0,0,0,68.11,55V28.57c-1.08-.09-2.39-.13-3.91-.13A21.62,21.62,0,0,0,59.41,29ZM57.91,56.1a2.93,2.93,0,0,1-2.73-1.54,10.91,10.91,0,0,1-.88-5.08,12.06,12.06,0,0,1,.91-5.32,3,3,0,0,1,2.92-1.78,15.83,15.83,0,0,1,3.83.44V54.6A5.57,5.57,0,0,1,57.91,56.1Zm16.93,1.72c1.67,1.84,4.25,2.77,7.72,2.77s6.16-1,8-3.1,2.84-5,2.84-8.71-.85-6.49-2.53-8.25-4.28-2.64-7.76-2.64-6.17,1-8,3-2.79,4.84-2.79,8.58S73.17,56,74.84,57.82Zm3.83-8.76q0-3.64,1-5.16a3.48,3.48,0,0,1,3.12-1.52c2.88,0,4.31,2.29,4.31,6.86q0,3.65-1,5.25a3.53,3.53,0,0,1-3.19,1.61Q78.68,56.1,78.67,49.06ZM96.13,38.24l-.44,3.39a5.72,5.72,0,0,0,2.42,1.5V55.35a5.18,5.18,0,0,0-2.42,1.5l.44,3.38h10.12l.44-3.38a5.92,5.92,0,0,0-2.42-1.5V44.05a6.79,6.79,0,0,1,4-1.41,3.67,3.67,0,0,1,2.75.82c.52.54.77,1.6.77,3.18v8.71a5.18,5.18,0,0,0-2.42,1.5l.44,3.38h10.12l.44-3.38a5.92,5.92,0,0,0-2.42-1.5V46.91q0-5-1.74-7t-6-2a11.2,11.2,0,0,0-3.5.6A8.75,8.75,0,0,0,103.69,40V37.8c-.85,0-1.92-.08-3.21-.08A20.65,20.65,0,0,0,96.13,38.24Zm26.08-5.41a3.22,3.22,0,0,0,.55,1.87,2.55,2.55,0,0,0,1.39,1.08c0,.21,0,.43,0,.66a9.18,9.18,0,0,1-1.45,4.75l1.85,1.14a12.82,12.82,0,0,0,3.6-4,10.56,10.56,0,0,0,1.5-5.48c0-2.22-1.25-3.34-3.74-3.34S122.21,30.61,122.21,32.83ZM140,32.7h-3.21c-1.32.85-2.15,2.48-2.51,4.88a7.37,7.37,0,0,0-2.9,1.68l.49,2.68h2V54.3a6.77,6.77,0,0,0,1.25,4.42q1.24,1.52,4.79,1.51a15.23,15.23,0,0,0,6.93-1.71l-1.32-3.43a8.94,8.94,0,0,1-3.21.66c-1,0-1.63-.21-1.89-.64a3.94,3.94,0,0,1-.4-2V41.94h6.29v-3.7H140ZM24,82.55l-.44,3.39A5.71,5.71,0,0,0,26,87.43v21.46a5.18,5.18,0,0,0-2.42,1.5l.44,3.39H34.12l.44-3.39a5.92,5.92,0,0,0-2.42-1.5V82.11C31.17,82,30,82,28.58,82A20.39,20.39,0,0,0,24,82.55Zm12.89,9.24-.44,3.38a5.57,5.57,0,0,0,2.42,1.5v12.22a5.18,5.18,0,0,0-2.42,1.5l.44,3.39H47l.44-3.39a5.85,5.85,0,0,0-2.42-1.5V91.35c-1-.09-2.15-.14-3.56-.14A19.79,19.79,0,0,0,36.89,91.79Zm1.32-6.36q0,3.31,3.67,3.32t3.67-3.32q0-3.32-3.67-3.32T38.21,85.43Zm10.9-2.88-.44,3.39a5.77,5.77,0,0,0,2.42,1.49v21.46a5.24,5.24,0,0,0-2.42,1.5l.44,3.39H59.23l.44-3.39a5.92,5.92,0,0,0-2.42-1.5V82.11c-1-.09-2.15-.13-3.56-.13A20.46,20.46,0,0,0,49.11,82.55Zm16.32,31.23h7l.44-3.39a7,7,0,0,0-3.83-1.89l-5-6.56,4.22-4.83A6.72,6.72,0,0,0,72,95.17l-.44-3.38H61.87l-.44,3.38a3.17,3.17,0,0,0,1,.93l-4.83,6.28Zm19.26.35a13.16,13.16,0,0,0,4.64-.77,10.11,10.11,0,0,0,2.56-1.23c.33-.31.59-.57.77-.77l-1.32-3.52-.62.35a8.6,8.6,0,0,1-2,.7,11.15,11.15,0,0,1-2.86.36,5.8,5.8,0,0,1-4-1.15,5.64,5.64,0,0,1-1.43-3.91H90q3.12,0,3.12-3.17c0-3.61-.73-6.1-2.18-7.5a8.71,8.71,0,0,0-6.27-2.09,11.09,11.09,0,0,0-7.16,2.47A8.47,8.47,0,0,0,75,97.52a15.27,15.27,0,0,0-.92,5.61c0,3.58.88,6.31,2.66,8.18S81.18,114.13,84.69,114.13Zm2.78-13.86-7,.27A6.61,6.61,0,0,1,81.75,97a3.32,3.32,0,0,1,2.66-1.06,2.79,2.79,0,0,1,2.44,1,3.25,3.25,0,0,1,.7,1.87A12.49,12.49,0,0,1,87.47,100.27Zm-62.9,64.17q0,3.31,3.68,3.32c2.44,0,3.67-1.11,3.67-3.32s-1.23-3.32-3.67-3.32S24.57,162.22,24.57,164.44Zm30.83,3.14h5.72l5.5-17.2a5.43,5.43,0,0,0,2.77-1.67L69,145.33H59.19l-.44,3.38a5.63,5.63,0,0,0,2.64,1.59l-.27,1.23q-.57,2.55-2.2,10h-.61l-1.1-4.88-3-11.22H49.33l-3,11.31c-.44,1.64-.82,3.24-1.14,4.79h-.62L42,150.3a6.18,6.18,0,0,0,2.69-1.59l-.44-3.38H34l-.44,3.38a5.38,5.38,0,0,0,2.59,1.59l5.54,17.28h6.25l2.06-7a37.07,37.07,0,0,0,1.32-6.29h.62l.13,1a28.3,28.3,0,0,0,1.1,5.28Zm17.51-2.68q2.5,2.78,7.72,2.77t8.05-3.1q2.83-3.1,2.83-8.71T89,147.61Q86.46,145,81.22,145c-3.49,0-6.16,1-8,3s-2.79,4.84-2.79,8.58S71.24,163.05,72.91,164.9Zm3.82-8.75q0-3.66,1-5.17a3.48,3.48,0,0,1,3.12-1.52q4.3,0,4.31,6.86a10.18,10.18,0,0,1-1,5.26,3.53,3.53,0,0,1-3.19,1.6Q76.73,163.18,76.73,156.15ZM107,150.74a12.74,12.74,0,0,1,1.93.13l.14-5.72a4.86,4.86,0,0,0-1.79-.22,6.76,6.76,0,0,0-2.88.77,7.85,7.85,0,0,0-2.59,2v-2.77q-1.28-.09-3.21-.09a20.23,20.23,0,0,0-4.36.53l-.44,3.38a5.69,5.69,0,0,0,2.42,1.5v12.23a5.24,5.24,0,0,0-2.42,1.49l.44,3.39h12.58l.44-3.39a10.38,10.38,0,0,0-4.88-1.85V152C103.18,151.16,104.72,150.74,107,150.74Zm3.78-14.65-.44,3.39a5.71,5.71,0,0,0,2.42,1.49v21.47a5.18,5.18,0,0,0-2.42,1.49l.44,3.39h10.12l.44-3.39a5.92,5.92,0,0,0-2.42-1.49V135.65c-1-.09-2.16-.13-3.56-.13A20.39,20.39,0,0,0,110.73,136.09Zm16.32,31.23h7l.43-3.39A6.94,6.94,0,0,0,130.7,162l-5-6.55,4.22-4.84a6.72,6.72,0,0,0,3.65-1.94l-.44-3.38h-9.67l-.44,3.38a3,3,0,0,0,1,.93l-4.84,6.29Z"/></g></g></svg>